<svg xmlns="http://www.w3.org/2000/svg" viewBox="0 0 24 24" width="48" height="48"><path fill="#1488c9" d="M16.21 8.77L16.00 8.80L7.90 8.79L7.79 8.77L7.60 8.69L7.43 8.57L7.37 8.49L7.26 8.31L7.23 8.21L7.21 8.10L7.21 7.90L7.26 7.69L7.37 7.51L7.43 7.43L7.51 7.37L7.69 7.26L7.90 7.21L16.10 7.21L16.31 7.26L16.40 7.31L16.49 7.37L16.63 7.51L16.74 7.69L16.77 7.79L16.80 8.00L16.77 8.21L16.74 8.31L16.63 8.49L16.49 8.63L16.31 8.74ZM5.76 2.71L6.00 2.70L18.18 2.71L18.45 2.74L18.80 2.82L19.05 2.91L19.37 3.06L19.60 3.20L19.77 3.33L20.03 3.57L20.21 3.78L20.44 4.13L20.62 4.51L20.74 4.91L20.79 5.32L20.80 18.53L20.77 18.89L20.72 19.15L20.62 19.49L20.51 19.74L20.33 20.05L20.17 20.27L19.93 20.53L19.72 20.71L19.37 20.94L18.99 21.12L18.59 21.24L18.18 21.29L5.97 21.30L5.61 21.27L5.35 21.22L5.01 21.12L4.76 21.01L4.45 20.83L4.23 20.67L3.97 20.43L3.79 20.22L3.56 19.87L3.38 19.49L3.26 19.09L3.21 18.68L3.20 5.50L3.21 5.26L3.24 5.05L3.32 4.70L3.46 4.31L3.67 3.95L3.83 3.73L3.97 3.57L4.23 3.33L4.40 3.20L4.57 3.09L4.81 2.96L5.20 2.82L5.41 2.76ZM18.09 4.30L6.01 4.30L5.73 4.33L5.48 4.42L5.25 4.56L5.06 4.75L4.96 4.90L4.85 5.15L4.81 5.32L4.80 5.51L4.80 18.49L4.83 18.77L4.92 19.02L5.06 19.25L5.25 19.44L5.40 19.54L5.65 19.65L5.82 19.69L6.01 19.70L17.99 19.70L18.27 19.67L18.52 19.58L18.75 19.44L18.94 19.25L19.04 19.10L19.15 18.85L19.19 18.68L19.20 18.49L19.20 5.41L19.17 5.23L19.12 5.06L18.99 4.82L18.88 4.68L18.68 4.51L18.52 4.42L18.27 4.33ZM16.21 12.77L16.00 12.80L7.90 12.79L7.79 12.77L7.60 12.69L7.43 12.57L7.37 12.49L7.26 12.31L7.23 12.21L7.21 12.10L7.21 11.90L7.26 11.69L7.31 11.60L7.43 11.43L7.60 11.31L7.69 11.26L7.90 11.21L16.10 11.21L16.31 11.26L16.40 11.31L16.57 11.43L16.69 11.60L16.74 11.69L16.77 11.79L16.80 12.00L16.77 12.21L16.74 12.31L16.63 12.49L16.49 12.63L16.31 12.74ZM13.21 16.77L13.00 16.80L7.90 16.79L7.69 16.74L7.60 16.69L7.51 16.63L7.37 16.49L7.26 16.31L7.23 16.21L7.21 16.10L7.21 15.90L7.26 15.69L7.31 15.60L7.43 15.43L7.60 15.31L7.69 15.26L7.90 15.21L13.10 15.21L13.31 15.26L13.40 15.31L13.57 15.43L13.69 15.60L13.74 15.69L13.77 15.79L13.80 16.00L13.77 16.21L13.74 16.31L13.63 16.49L13.57 16.57L13.40 16.69Z"/></svg>
