<svg xmlns="http://www.w3.org/2000/svg" viewBox="0 0 24 24" width="48" height="48"><path fill="#1488c9" d="M3.95 12.16L3.76 12.26L3.55 12.30L3.45 12.30L3.35 12.29L3.15 12.22L3.06 12.17L2.90 12.03L2.78 11.86L2.74 11.76L2.72 11.66L2.70 11.45L2.74 11.25L2.78 11.15L2.90 10.97L2.97 10.90L11.47 3.40L11.64 3.28L11.84 3.22L11.95 3.20L12.16 3.22L12.36 3.28L12.45 3.34L21.03 10.90L21.17 11.06L21.26 11.25L21.29 11.35L21.30 11.55L21.26 11.76L21.22 11.86L21.10 12.03L20.94 12.17L20.85 12.22L20.65 12.29L20.45 12.30L20.24 12.26L20.14 12.22L19.97 12.10L19.30 11.51L19.30 20.50L19.27 20.71L19.19 20.90L19.07 21.07L18.90 21.19L18.71 21.27L18.50 21.30L5.50 21.30L5.29 21.27L5.10 21.19L4.93 21.07L4.81 20.90L4.73 20.71L4.70 20.50L4.70 11.51ZM6.30 10.10L6.30 19.70L9.20 19.70L9.21 15.40L9.23 15.29L9.31 15.10L9.43 14.93L9.60 14.81L9.79 14.73L10.00 14.70L14.00 14.70L14.21 14.73L14.31 14.76L14.40 14.81L14.57 14.93L14.69 15.10L14.74 15.19L14.79 15.40L14.80 19.70L17.70 19.70L17.70 10.10L12.00 5.07ZM10.80 16.30L10.80 19.70L13.20 19.70L13.20 16.30Z"/></svg>
