<svg xmlns="http://www.w3.org/2000/svg" viewBox="0 0 24 24" width="48" height="48"><path fill="#1488c9" d="M7.31 2.70L11.16 2.70L11.55 2.73L12.08 2.82L12.43 2.92L12.91 3.09L13.26 3.26L13.57 3.44L13.98 3.74L14.25 3.97L14.51 4.22L14.76 4.52L14.97 4.81L15.16 5.11L15.32 5.40L15.46 5.73L15.58 6.07L15.68 6.42L15.77 6.98L15.80 7.50L15.80 13.74L15.90 13.66L15.91 8.12L15.95 7.82L16.05 7.47L16.14 7.26L16.28 7.01L16.41 6.82L16.66 6.55L16.88 6.36L17.07 6.24L17.40 6.08L17.61 6.00L17.90 5.93L18.26 5.90L18.56 5.91L18.78 5.95L18.99 6.00L19.34 6.14L19.59 6.28L19.78 6.41L19.94 6.55L20.19 6.82L20.32 7.01L20.43 7.20L20.55 7.47L20.65 7.82L20.69 8.12L20.70 13.66L21.06 13.95L21.42 14.33L21.67 14.65L21.94 15.10L22.11 15.47L22.27 15.97L22.35 16.37L22.40 16.89L22.39 17.30L22.32 17.81L22.17 18.35L22.01 18.73L21.76 19.19L21.52 19.52L21.15 19.94L20.75 20.27L20.41 20.50L20.08 20.68L19.74 20.82L19.24 20.98L18.84 21.05L18.47 21.08L18.10 21.08L17.58 21.02L17.21 20.94L16.83 20.81L16.48 20.66L16.03 20.40L15.73 20.18L15.43 19.91L15.17 19.64L14.91 19.29L14.65 19.62L14.38 19.90L14.12 20.15L13.72 20.46L13.39 20.66L12.93 20.89L12.60 21.03L12.23 21.14L11.70 21.25L11.16 21.30L7.31 21.30L6.77 21.24L6.24 21.13L5.73 20.96L5.24 20.74L4.78 20.46L4.36 20.13L3.99 19.78L3.65 19.36L3.44 19.07L3.26 18.76L3.11 18.43L2.97 18.10L2.87 17.76L2.79 17.41L2.71 16.84L2.70 16.50L2.70 7.49L2.73 6.95L2.82 6.45L2.91 6.10L3.03 5.76L3.18 5.40L3.35 5.09L3.63 4.66L3.85 4.38L4.10 4.12L4.38 3.85L4.78 3.54L5.09 3.35L5.43 3.17L5.76 3.03L6.10 2.91L6.45 2.82L6.95 2.73ZM5.88 8.31L5.45 8.66L5.26 8.76L5.06 8.80L4.85 8.79L4.65 8.72L4.48 8.60L4.40 8.53L4.30 8.38L4.30 10.62L4.40 10.48L4.47 10.40L4.78 10.14L5.22 9.82L5.58 9.61L6.05 9.41L6.39 9.31L6.75 9.25L7.10 9.23L7.46 9.24L7.81 9.30L8.16 9.40L8.54 9.55L8.86 9.72L9.18 9.92L9.49 10.16L10.02 10.60L10.34 10.84L10.55 10.96L10.74 11.05L10.93 11.11L11.11 11.15L11.29 11.17L11.55 11.16L11.82 11.11L12.01 11.05L12.30 10.90L12.51 10.77L13.05 10.34L13.14 10.28L13.34 10.22L13.44 10.20L13.65 10.21L13.85 10.28L14.02 10.40L14.10 10.47L14.20 10.62L14.20 8.38L14.10 8.52L14.03 8.60L13.72 8.86L13.28 9.18L12.92 9.39L12.45 9.59L12.11 9.69L11.71 9.76L11.35 9.77L11.00 9.75L10.64 9.69L10.30 9.59L9.83 9.39L9.50 9.20L9.18 8.98L8.48 8.40L8.26 8.23L7.95 8.04L7.76 7.95L7.57 7.89L7.39 7.85L7.21 7.83L6.95 7.84L6.77 7.87L6.49 7.95L6.30 8.04L6.09 8.16ZM14.20 7.62L14.18 7.14L14.09 6.67L13.93 6.22L13.71 5.80L13.50 5.50L13.18 5.15L12.80 4.86L12.39 4.62L12.06 4.48L11.83 4.41L11.48 4.34L11.24 4.31L7.51 4.30L7.26 4.31L6.91 4.36L6.67 4.41L6.33 4.52L6.00 4.67L5.80 4.79L5.50 5.00L5.24 5.24L5.07 5.41L4.86 5.70L4.67 6.00L4.52 6.33L4.41 6.67L4.36 6.91L4.31 7.26L4.30 7.62L4.40 7.48L4.47 7.40L4.78 7.14L5.22 6.82L5.58 6.61L6.05 6.41L6.39 6.31L6.75 6.25L7.10 6.23L7.46 6.24L7.81 6.30L8.16 6.40L8.54 6.55L8.86 6.72L9.18 6.92L9.49 7.16L10.02 7.60L10.34 7.84L10.55 7.96L10.74 8.05L10.93 8.11L11.11 8.15L11.29 8.17L11.55 8.16L11.82 8.11L12.01 8.05L12.30 7.90L12.51 7.77L13.05 7.34L13.24 7.24L13.34 7.22L13.55 7.20L13.75 7.24L13.94 7.33L14.10 7.47ZM5.88 11.31L5.45 11.66L5.26 11.76L5.06 11.80L4.85 11.79L4.65 11.72L4.48 11.60L4.40 11.53L4.30 11.38L4.30 16.49L4.32 16.86L4.41 17.33L4.48 17.56L4.62 17.89L4.79 18.20L4.93 18.40L5.24 18.76L5.50 19.00L5.70 19.14L6.00 19.33L6.33 19.48L6.67 19.59L6.91 19.64L7.26 19.69L7.51 19.70L10.99 19.70L11.48 19.66L11.83 19.59L12.06 19.52L12.50 19.33L12.90 19.07L13.26 18.76L13.43 18.59L13.64 18.30L13.88 17.89L14.06 17.44L14.14 17.09L14.18 16.86L14.20 16.49L14.20 11.38L14.10 11.52L14.03 11.60L13.72 11.86L13.28 12.18L12.92 12.39L12.45 12.59L12.11 12.69L11.71 12.76L11.35 12.77L11.00 12.75L10.64 12.69L10.30 12.59L9.83 12.39L9.50 12.20L9.18 11.98L8.48 11.40L8.26 11.23L7.95 11.04L7.76 10.95L7.57 10.89L7.39 10.85L7.21 10.83L6.95 10.84L6.77 10.87L6.49 10.95L6.30 11.04L6.09 11.16ZM19.11 14.20L19.10 8.23L19.05 8.01L18.98 7.88L18.89 7.76L18.78 7.66L18.66 7.58L18.52 7.53L18.37 7.50L18.23 7.50L18.08 7.53L17.94 7.58L17.82 7.66L17.71 7.76L17.62 7.88L17.55 8.01L17.50 8.23L17.50 14.10L17.47 14.31L17.39 14.50L17.27 14.66L17.19 14.73L16.80 14.98L16.63 15.13L16.39 15.37L16.19 15.65L16.03 15.95L15.91 16.27L15.85 16.49L15.81 16.82L15.80 17.05L15.82 17.28L15.88 17.61L15.95 17.83L16.03 18.04L16.14 18.24L16.26 18.43L16.48 18.70L16.64 18.85L16.81 19.00L17.00 19.12L17.20 19.23L17.41 19.32L17.63 19.39L17.85 19.44L18.07 19.48L18.30 19.49L18.53 19.48L18.75 19.44L19.08 19.36L19.29 19.28L19.50 19.18L19.69 19.06L19.87 18.93L20.04 18.78L20.20 18.61L20.34 18.43L20.46 18.24L20.57 18.04L20.69 17.72L20.75 17.50L20.78 17.28L20.80 17.05L20.79 16.82L20.77 16.60L20.72 16.38L20.66 16.16L20.57 15.95L20.47 15.75L20.35 15.55L20.13 15.29L19.89 15.05L19.71 14.92L19.41 14.73L19.27 14.59L19.16 14.41ZM8.17 17.26L7.99 17.25L7.89 17.23L7.70 17.16L7.62 17.10L7.47 16.96L7.36 16.79L7.30 16.60L7.29 16.50L7.31 16.29L7.37 16.10L9.07 13.57L9.22 13.44L9.40 13.35L9.50 13.32L9.71 13.30L9.81 13.31L10.00 13.37L10.09 13.42L10.25 13.55L10.37 13.72L10.45 13.91L10.46 14.01L10.46 14.21L10.33 15.14L10.51 15.15L10.61 15.17L10.80 15.24L10.96 15.36L11.09 15.52L11.17 15.70L11.21 15.90L11.19 16.11L11.13 16.30L9.49 18.75L9.36 18.90L9.19 19.01L9.00 19.08L8.90 19.10L8.79 19.10L8.59 19.06L8.41 18.98L8.32 18.92L8.18 18.77L8.08 18.59L8.04 18.39L8.04 18.19Z"/></svg>
